<!-- <svg viewBox="0 0 1903 166" xmlns="http://www.w3.org/2000/svg"
    xmlns:xlink="http://www.w3.org/1999/xlink">
    <path fill="#ffffff" d="M 0 0 C 228.5 0 228.5 103 457 103 L 457 103 L 457 0 L 0 0 Z"
        stroke-width="0"></path>
    <path fill="#ffffff"
        d="M 456 103 C 672.5 103 672.5 48 889 48 L 889 48 L 889 0 L 456 0 Z" stroke-width="0"></path>
    <path fill="#ffffff"
        d="M 888 48 C 1097.5 48 1097.5 111 1307 111 L 1307 111 L 1307 0 L 888 0 Z" stroke-width="0"></path>
    <path fill="#ffffff"
        d="M 1306 111 C 1496 111 1496 9 1686 9 L 1686 9 L 1686 0 L 1306 0 Z" stroke-width="0"></path>
    <path fill="#ffffff"
        d="M 1685 9 C 1790.5 9 1790.5 88 1896 88 L 1896 88 L 1896 0 L 1685 0 Z" stroke-width="0"></path>
    <path fill="#ffffff"
        d="M 1895 88 C 1899 88 1899 0 1903 0 L 1903 0 L 1903 0 L 1895 0 Z" stroke-width="0"></path>
</svg> -->

<svg id="wave" style="transform:rotate(0deg); transition: 0.3s" viewBox="0 0 1440 350" version="1.1"
    xmlns="http://www.w3.org/2000/svg">
    <defs>
        <linearGradient id="sw-gradient-0" x1="0" x2="0" y1="1" y2="0">
            <stop stop-color="rgba(255, 255, 255, 1)" offset="0%"></stop>
            <stop stop-color="rgba(255, 255, 255, 1)" offset="100%"></stop>
        </linearGradient>
    </defs>
    <path style="transform:translate(0, 0px); opacity:1" fill="url(#sw-gradient-0)"
        d="M0,70L48,105C96,140,192,210,288,245C384,280,480,280,576,268.3C672,257,768,233,864,210C960,187,1056,163,1152,180.8C1248,198,1344,257,1440,233.3C1536,210,1632,105,1728,81.7C1824,58,1920,117,2016,145.8C2112,175,2208,175,2304,192.5C2400,210,2496,245,2592,245C2688,245,2784,210,2880,204.2C2976,198,3072,222,3168,221.7C3264,222,3360,198,3456,175C3552,152,3648,128,3744,116.7C3840,105,3936,105,4032,116.7C4128,128,4224,152,4320,163.3C4416,175,4512,175,4608,192.5C4704,210,4800,245,4896,250.8C4992,257,5088,233,5184,204.2C5280,175,5376,140,5472,145.8C5568,152,5664,198,5760,198.3C5856,198,5952,152,6048,163.3C6144,175,6240,245,6336,233.3C6432,222,6528,128,6624,93.3C6720,58,6816,82,6864,93.3L6912,105L6912,350L6864,350C6816,350,6720,350,6624,350C6528,350,6432,350,6336,350C6240,350,6144,350,6048,350C5952,350,5856,350,5760,350C5664,350,5568,350,5472,350C5376,350,5280,350,5184,350C5088,350,4992,350,4896,350C4800,350,4704,350,4608,350C4512,350,4416,350,4320,350C4224,350,4128,350,4032,350C3936,350,3840,350,3744,350C3648,350,3552,350,3456,350C3360,350,3264,350,3168,350C3072,350,2976,350,2880,350C2784,350,2688,350,2592,350C2496,350,2400,350,2304,350C2208,350,2112,350,2016,350C1920,350,1824,350,1728,350C1632,350,1536,350,1440,350C1344,350,1248,350,1152,350C1056,350,960,350,864,350C768,350,672,350,576,350C480,350,384,350,288,350C192,350,96,350,48,350L0,350Z"></path>
</svg>