<svg viewBox="0 0 1903 166" xmlns="http://www.w3.org/2000/svg"
    xmlns:xlink="http://www.w3.org/1999/xlink">
    <path fill="#ffffff" d="M 0 0 C 228.5 0 228.5 103 457 103 L 457 103 L 457 0 L 0 0 Z"
        stroke-width="0"></path>
    <path fill="#ffffff"
        d="M 456 103 C 672.5 103 672.5 48 889 48 L 889 48 L 889 0 L 456 0 Z" stroke-width="0"></path>
    <path fill="#ffffff"
        d="M 888 48 C 1097.5 48 1097.5 111 1307 111 L 1307 111 L 1307 0 L 888 0 Z" stroke-width="0"></path>
    <path fill="#ffffff"
        d="M 1306 111 C 1496 111 1496 9 1686 9 L 1686 9 L 1686 0 L 1306 0 Z" stroke-width="0"></path>
    <path fill="#ffffff"
        d="M 1685 9 C 1790.5 9 1790.5 88 1896 88 L 1896 88 L 1896 0 L 1685 0 Z" stroke-width="0"></path>
    <path fill="#ffffff"
        d="M 1895 88 C 1899 88 1899 0 1903 0 L 1903 0 L 1903 0 L 1895 0 Z" stroke-width="0"></path>
</svg>